<svg width="30" height="31" viewBox="0 0 30 31" fill="none" xmlns="http://www.w3.org/2000/svg">
<path d="M11.54 0.514648C7.09233 0.514648 3.46201 4.0772 3.46201 8.44188C3.46201 11.1698 4.88277 13.597 7.03221 15.0243C2.91572 16.7568 0 20.7645 0 25.4288H2.30801C2.30801 20.4112 6.42703 16.3691 11.54 16.3691C14.0166 16.3691 16.2287 17.364 17.887 18.9171L12.694 24.0132L12.4416 24.2609L12.3695 24.6148L11.5761 28.6138L11.2155 30.2772L12.9104 29.9233L16.9855 29.1447L17.3461 29.0739L17.5985 28.8262L28.9943 17.6431C30.3352 16.3273 30.3352 14.146 28.9943 12.8302C28.3239 12.1722 27.4296 11.8393 26.5421 11.8393C25.6546 11.8393 24.7603 12.1722 24.0898 12.8302L19.5459 17.2892C18.5422 16.3404 17.3486 15.5705 16.0479 15.0243C18.1973 13.597 19.618 11.1698 19.618 8.44188C19.618 4.0772 15.9877 0.514648 11.54 0.514648ZM11.54 2.77957C14.7404 2.77957 17.31 5.30126 17.31 8.44188C17.31 11.5825 14.7404 14.1042 11.54 14.1042C8.33967 14.1042 5.77001 11.5825 5.77001 8.44188C5.77001 5.30126 8.33967 2.77957 11.54 2.77957ZM26.5421 14.1042C26.834 14.1042 27.1418 14.1973 27.3715 14.4227C27.8182 14.8611 27.8298 15.5287 27.4076 15.9798L27.3715 16.0152L16.1921 26.9859L14.1365 27.4106L14.5693 25.3934L25.7487 14.4227C25.9784 14.1973 26.2502 14.1042 26.5421 14.1042Z" fill="white"/>
</svg>
