<svg width="55" height="55" viewBox="0 0 55 55" fill="none" xmlns="http://www.w3.org/2000/svg">
<path d="M4.58333 55C3.36111 55 2.29167 54.5417 1.375 53.625C0.458333 52.7083 0 51.6389 0 50.4167V4.58333C0 3.36111 0.458333 2.29167 1.375 1.375C2.29167 0.458333 3.36111 0 4.58333 0H50.4167C51.6389 0 52.7083 0.458333 53.625 1.375C54.5417 2.29167 55 3.36111 55 4.58333V50.4167C55 51.6389 54.5417 52.7083 53.625 53.625C52.7083 54.5417 51.6389 55 50.4167 55H4.58333ZM4.58333 50.4167H50.4167V4.58333H4.58333V50.4167ZM8.86111 43.0069H46.2153L34.9861 28.0347L24.9028 41.0972L17.7986 31.3958L8.86111 43.0069Z" fill="#81E291"/>
</svg>
