<svg width="10" height="12" viewBox="0 0 10 12" fill="none" xmlns="http://www.w3.org/2000/svg">
<path d="M5.26316 6.97474V8.07474C4.7868 7.90632 4.27699 7.85466 3.77653 7.9241C3.27607 7.99354 2.79958 8.18205 2.38707 8.47379C1.97456 8.76554 1.63808 9.15201 1.40587 9.60074C1.17367 10.0495 1.05254 10.5474 1.05263 11.0526L1.3603e-07 11.0521C-0.000163218 10.4094 0.146801 9.77521 0.429631 9.1981C0.712461 8.62099 1.12365 8.11628 1.63169 7.72265C2.13974 7.32902 2.73115 7.05691 3.36061 6.92718C3.99007 6.79745 4.64087 6.81354 5.26316 6.97421V6.97474ZM4.21053 6.31579C2.46579 6.31579 1.05263 4.90263 1.05263 3.15789C1.05263 1.41316 2.46579 0 4.21053 0C5.95526 0 7.36842 1.41316 7.36842 3.15789C7.36842 4.90263 5.95526 6.31579 4.21053 6.31579ZM4.21053 5.26316C5.37368 5.26316 6.31579 4.32105 6.31579 3.15789C6.31579 1.99474 5.37368 1.05263 4.21053 1.05263C3.04737 1.05263 2.10526 1.99474 2.10526 3.15789C2.10526 4.32105 3.04737 5.26316 4.21053 5.26316ZM7.36842 8.42105V6.84211H8.42105V8.42105H10V9.47368H8.42105V11.0526H7.36842V9.47368H5.78947V8.42105H7.36842Z" fill="white"/>
</svg>
