<svg width="32" height="35" viewBox="0 0 32 35" fill="none" xmlns="http://www.w3.org/2000/svg">
<path d="M13.7097 0.878188C14.339 0.31278 15.1551 0 16.0011 0C16.8471 0 17.6633 0.31278 18.2926 0.878188L30.864 12.1742C31.2214 12.4956 31.5073 12.8886 31.703 13.3277C31.8987 13.7667 31.9999 14.2421 32 14.7228V30.8485C32 31.7578 31.6388 32.6299 30.9958 33.2728C30.3528 33.9158 29.4807 34.277 28.5714 34.277H22.8571C21.9478 34.277 21.0758 33.9158 20.4328 33.2728C19.7898 32.6299 19.4286 31.7578 19.4286 30.8485V22.8485C19.4286 22.5454 19.3082 22.2547 19.0938 22.0404C18.8795 21.826 18.5888 21.7056 18.2857 21.7056H13.7143C13.4112 21.7056 13.1205 21.826 12.9062 22.0404C12.6918 22.2547 12.5714 22.5454 12.5714 22.8485V30.8485C12.5714 31.7578 12.2102 32.6299 11.5672 33.2728C10.9242 33.9158 10.0522 34.277 9.14286 34.277H3.42857C2.51926 34.277 1.64719 33.9158 1.00421 33.2728C0.361224 32.6299 0 31.7578 0 30.8485V14.7228C0 13.7513 0.411428 12.8256 1.13829 12.1742L13.7097 0.878188ZM16.7634 2.57876C16.5537 2.3905 16.2818 2.28637 16 2.28637C15.7182 2.28637 15.4463 2.3905 15.2366 2.57876L2.66514 13.8748C2.54605 13.9817 2.45074 14.1124 2.38538 14.2585C2.32001 14.4045 2.28606 14.5627 2.28571 14.7228V30.8485C2.28571 31.1516 2.40612 31.4423 2.62045 31.6566C2.83478 31.8709 3.12547 31.9913 3.42857 31.9913H9.14286C9.44596 31.9913 9.73665 31.8709 9.95098 31.6566C10.1653 31.4423 10.2857 31.1516 10.2857 30.8485V22.8485C10.2857 21.9392 10.6469 21.0671 11.2899 20.4241C11.9329 19.7811 12.805 19.4199 13.7143 19.4199H18.2857C19.195 19.4199 20.0671 19.7811 20.7101 20.4241C21.3531 21.0671 21.7143 21.9392 21.7143 22.8485V30.8485C21.7143 31.1516 21.8347 31.4423 22.049 31.6566C22.2633 31.8709 22.554 31.9913 22.8571 31.9913H28.5714C28.8745 31.9913 29.1652 31.8709 29.3796 31.6566C29.5939 31.4423 29.7143 31.1516 29.7143 30.8485V14.7228C29.7139 14.5627 29.68 14.4045 29.6146 14.2585C29.5493 14.1124 29.454 13.9817 29.3349 13.8748L16.7634 2.57876Z" fill="white"/>
</svg>
