<svg width="36" height="38" viewBox="0 0 36 38" fill="none" xmlns="http://www.w3.org/2000/svg">
<path d="M27.4888 17.1579C28.4674 26.2105 32.3158 28.9474 32.3158 28.9474H2C2 28.9474 7.05263 25.3549 7.05263 12.7789C7.05263 9.92084 8.11705 7.17895 10.0118 5.15789C11.9082 3.13684 14.48 2 17.1579 2C17.7255 2 18.2897 2.05053 18.8421 2.15158M20.0716 34C19.7758 34.5109 19.3509 34.935 18.8395 35.2299C18.3281 35.5247 17.7482 35.6799 17.1579 35.6799C16.5676 35.6799 15.9877 35.5247 15.4763 35.2299C14.9649 34.935 14.54 34.5109 14.2442 34M28.9474 12.1053C30.2874 12.1053 31.5726 11.5729 32.5201 10.6254C33.4677 9.67783 34 8.39267 34 7.05263C34 5.71259 33.4677 4.42743 32.5201 3.47988C31.5726 2.53233 30.2874 2 28.9474 2C27.6073 2 26.3222 2.53233 25.3746 3.47988C24.4271 4.42743 23.8947 5.71259 23.8947 7.05263C23.8947 8.39267 24.4271 9.67783 25.3746 10.6254C26.3222 11.5729 27.6073 12.1053 28.9474 12.1053Z" stroke="white" stroke-width="3" stroke-linecap="round" stroke-linejoin="round"/>
</svg>
