<svg width="20" height="20" viewBox="0 0 20 20" fill="none" xmlns="http://www.w3.org/2000/svg">
<path fill-rule="evenodd" clip-rule="evenodd" d="M8.33333 0C12.9357 0 16.6667 3.73096 16.6667 8.33333C16.6667 10.0318 16.1585 11.6117 15.2859 12.9291L19.5118 17.1548C20.1627 17.8057 20.1627 18.861 19.5118 19.5118C18.911 20.1126 17.9657 20.1589 17.3118 19.6505L17.1548 19.5118L12.9291 15.2859C11.6117 16.1585 10.0318 16.6667 8.33333 16.6667C3.73096 16.6667 0 12.9357 0 8.33333C0 3.73096 3.73096 0 8.33333 0ZM8.33374 3.33344C5.57232 3.33344 3.33374 5.57201 3.33374 8.33344C3.33374 11.0949 5.57232 13.3334 8.33374 13.3334C11.0952 13.3334 13.3337 11.0949 13.3337 8.33344C13.3337 5.57201 11.0952 3.33344 8.33374 3.33344Z" fill="white" fill-opacity="0.6"/>
</svg>
