<svg width="20" height="20" viewBox="0 0 20 20" fill="none" xmlns="http://www.w3.org/2000/svg">
<path fill-rule="evenodd" clip-rule="evenodd" d="M16 0C18.2091 0 20 1.79086 20 4C20 6.20914 18.2091 8 16 8C14.8302 8 13.7777 7.49784 13.0462 6.69732L8 9.58032V10.4197L13.0462 13.3027C13.7777 12.5022 14.8302 12 16 12C18.2091 12 20 13.7909 20 16C20 18.2091 18.2091 20 16 20C13.7909 20 12 18.2091 12 16C12 15.6802 12.0375 15.3692 12.1084 15.0712L7.26914 12.3055C6.54488 13.3306 5.35061 14 4 14C1.79086 14 0 12.2091 0 10C0 7.79086 1.79086 6 4 6C5.35061 6 6.54488 6.66938 7.26914 7.69449L12.1084 4.92883C12.0375 4.63076 12 4.31976 12 4C12 1.79086 13.7909 0 16 0ZM16 14C14.8954 14 14 14.8954 14 16C14 17.1046 14.8954 18 16 18C17.1046 18 18 17.1046 18 16C18 14.8954 17.1046 14 16 14ZM4 8C2.89543 8 2 8.89543 2 10C2 11.1046 2.89543 12 4 12C5.10457 12 6 11.1046 6 10C6 8.89543 5.10457 8 4 8ZM16 2C14.8954 2 14 2.89543 14 4C14 5.10457 14.8954 6 16 6C17.1046 6 18 5.10457 18 4C18 2.89543 17.1046 2 16 2Z" fill="white"/>
</svg>
