<svg width="32" height="27" viewBox="0 0 32 27" fill="none" xmlns="http://www.w3.org/2000/svg">
<path d="M15.8459 26.4099V23.2847L25.3535 13.7772L28.4787 16.9023L18.9711 26.4099H15.8459ZM0 17.1664V14.5254H13.205V17.1664H0ZM30.3714 15.0096L27.2462 11.8845L28.5227 10.608C28.7575 10.3732 29.0656 10.2558 29.447 10.2558C29.8285 10.2558 30.1366 10.3732 30.3714 10.608L31.6479 11.8845C31.8826 12.1192 32 12.4273 32 12.8088C32 13.1903 31.8826 13.4984 31.6479 13.7331L30.3714 15.0096ZM0 9.90371V7.26272H20.6878V9.90371H0ZM0 2.64099V0H20.6878V2.64099H0Z" fill="url(#paint0_linear_150_141)"/>
<defs>
<linearGradient id="paint0_linear_150_141" x1="16" y1="0" x2="16" y2="26.4099" gradientUnits="userSpaceOnUse">
<stop stop-color="#288B58"/>
<stop offset="1" stop-color="#1522F1"/>
</linearGradient>
</defs>
</svg>
