<svg width="48" height="48" viewBox="0 0 48 48" fill="none" xmlns="http://www.w3.org/2000/svg">
<g clip-path="url(#clip0_348_43)">
<path d="M40 44H8C7.46957 44 6.96086 43.7893 6.58579 43.4142C6.21071 43.0391 6 42.5304 6 42V6C6 5.46957 6.21071 4.96086 6.58579 4.58579C6.96086 4.21071 7.46957 4 8 4H40C40.5304 4 41.0391 4.21071 41.4142 4.58579C41.7893 4.96086 42 5.46957 42 6V42C42 42.5304 41.7893 43.0391 41.4142 43.4142C41.0391 43.7893 40.5304 44 40 44ZM38 40V8H10V40H38ZM16 14H32V18H16V14ZM16 22H32V26H16V22ZM16 30H26V34H16V30Z" fill="white"/>
</g>
<defs>
<clipPath id="clip0_348_43">
<rect width="48" height="48" fill="white"/>
</clipPath>
</defs>
</svg>
